<svg xmlns="http://www.w3.org/2000/svg" viewBox="0 0 480 480"><defs><style>.cls-1{fill:#f7921e;}</style></defs><title>Filejet-admin-icon</title><g id="Capa_1" data-name="Capa 1"><path class="cls-1" d="M138.7,438.43l-1.84-1A211.37,211.37,0,0,1,28,252.69C28,136.28,123.13,41.57,240,41.57s212,94.71,212,211.12A211.4,211.4,0,0,1,343.14,437.41l-1.84,1ZM240,57.84c-107.91,0-195.7,87.41-195.7,194.85a195.55,195.55,0,0,0,97.57,168.86l1.06.61H337.07l1.06-.61a195.54,195.54,0,0,0,97.56-168.86C435.69,145.25,347.91,57.84,240,57.84Z"/><path class="cls-1" d="M324.8,348.14a8.13,8.13,0,0,1,11.5-11.5l12.09,12.09,3.19-3.82a142.82,142.82,0,0,0,32.78-79.14l.45-5H367.7a8.13,8.13,0,0,1,0-16.26h17.1l-.45-5a142.66,142.66,0,0,0-32.93-79l-3.19-3.82L336.3,168.73a8.13,8.13,0,0,1-11.5-11.5l11.91-11.9-3.84-3.2a144.32,144.32,0,0,0-79.78-32.95l-5-.45v17.1a8.13,8.13,0,0,1-16.26,0V108.74l-5,.44a144.32,144.32,0,0,0-79.78,32.95l-3.84,3.2,11.91,11.91a8.13,8.13,0,1,1-11.5,11.49L131.77,156.8l-3.19,3.82a142.69,142.69,0,0,0-32.93,79l-.45,5h17.1a8.14,8.14,0,0,1,0,16.27H95.19l.45,5a142.79,142.79,0,0,0,32.78,79.13l3.19,3.82,12.09-12.09a8.13,8.13,0,0,1,11.5,11.5l-23.67,23.67a178.77,178.77,0,0,1-30.66-38.16,157,157,0,0,1-22.08-81c0-88.43,72.32-160.37,161.21-160.37s161.21,71.94,161.21,160.37a157,157,0,0,1-22,81,177.78,177.78,0,0,1-30.75,38.17Z"/><path class="cls-1" d="M240.67,304.21c-.46,0-.91,0-1.37,0a33.5,33.5,0,0,1-9.79-65.06l3-1.08v-44.3a8.13,8.13,0,0,1,16.26,0V238l3,1.08a33.5,33.5,0,0,1-11.16,65.09Zm0-50.74a16.49,16.49,0,0,0-2.23.14A17.24,17.24,0,0,0,240.67,288a18.54,18.54,0,0,0,2.23-.14,17.24,17.24,0,0,0-2.23-34.34Z"/></g></svg>