<svg id="UDAJE" xmlns="http://www.w3.org/2000/svg" viewBox="0 0 68.65 59.31"><defs><style>.cls-1{fill:#010101;}.cls-2{fill:#5e58a6;}.cls-3{fill:#283782;}.cls-4{fill:#5881c1;}.cls-5{fill:#ee5b26;}.cls-6{fill:#b53672;}.cls-7{fill:#4a57a6;}.cls-8{fill:#f79421;}.cls-9{fill:#168aa8;}.cls-10{fill:#6fbe44;}.cls-11{fill:#dc4638;}</style></defs><title>FILEJET-center_logo</title><path class="cls-1" d="M10.59,46.21H5.35v2.28H9.4v1.72H5.35v4H3.14V44.49h7.45Z"/><path class="cls-1" d="M15.94,54.21H13.73V44.49h2.21Z"/><path class="cls-1" d="M26.41,54.21H19.22V44.49h2.22v8h5Z"/><path class="cls-1" d="M37.06,54.21H29.15V44.49h7.74v1.72H31.42v2.28h4.25v1.72H31.42v2.28h5.64Z"/><path class="cls-1" d="M40.12,56.6H39.5l-.18-1.34h.47A.85.85,0,0,0,40.5,55a1.38,1.38,0,0,0,.21-.85V44.49h2.21v10a1.79,1.79,0,0,1-.73,1.54A3.55,3.55,0,0,1,40.12,56.6Z"/><path class="cls-1" d="M54.33,54.21H46.42V44.49h7.74v1.72H48.69v2.28h4.24v1.72H48.69v2.28h5.64Z"/><path class="cls-1" d="M65.51,46.21H62.09v8H59.88v-8H56.46V44.49h9.05Z"/><rect class="cls-2" x="34.85" y="8.32" width="6.12" height="6.12" transform="translate(19.15 -23.48) rotate(45)"/><rect class="cls-3" x="39.18" y="12.65" width="6.12" height="6.12" transform="translate(23.48 -25.27) rotate(45)"/><rect class="cls-4" x="43.51" y="16.98" width="6.12" height="6.12" transform="translate(27.81 -27.06) rotate(45)"/><rect class="cls-5" x="30.52" y="12.65" width="6.12" height="6.12" transform="translate(20.94 -19.15) rotate(45)"/><rect class="cls-6" x="34.85" y="16.98" width="6.12" height="6.12" transform="translate(25.27 -20.94) rotate(45)"/><rect class="cls-7" x="39.18" y="21.31" width="6.12" height="6.12" transform="translate(29.61 -22.73) rotate(45)"/><rect class="cls-6" x="20.46" y="20.12" width="4.96" height="4.96" transform="translate(22.7 -9.6) rotate(45)"/><rect class="cls-5" x="19.01" y="15.48" width="3.56" height="3.56" transform="translate(18.29 -9.64) rotate(45)"/><rect class="cls-3" x="14.81" y="18.71" width="2.69" height="2.69" transform="translate(18.91 -5.55) rotate(45)"/><rect class="cls-8" x="30.52" y="21.31" width="6.12" height="6.12" transform="translate(27.07 -16.61) rotate(45)"/><rect class="cls-9" x="34.85" y="25.64" width="6.12" height="6.12" transform="translate(31.4 -18.4) rotate(45)"/><rect class="cls-10" x="30.52" y="29.97" width="6.12" height="6.12" transform="translate(33.19 -14.07) rotate(45)"/><rect class="cls-11" x="30.52" y="3.99" width="6.12" height="6.12" transform="translate(14.82 -21.68) rotate(45)"/></svg>