<svg xmlns="http://www.w3.org/2000/svg" viewBox="0 0 1200 300"><defs><style>.cls-1{fill:#5e9cf7;}.cls-2{fill:#fff;}</style></defs><title>FILEJET-2019-logo-whitebg</title><g id="Layer_1" data-name="Layer 1"><path class="cls-1" d="M248.73,45.72H53.85A3.85,3.85,0,0,0,50,49.57V244.44a3.86,3.86,0,0,0,3.85,3.86H248.73a3.85,3.85,0,0,0,3.85-3.86V49.57A3.85,3.85,0,0,0,248.73,45.72ZM87.5,210.8V180.17h30.62V210.8Zm79.1-48.48H136V131.7H166.6Zm0-48.48H118.13v48.48H87.51V83.23H166.6Zm48.48,0H184.46V83.22h30.62Z"/><polygon class="cls-2" points="426.18 100.5 348.56 100.5 348.56 135.12 386.33 135.12 386.33 160.6 348.56 160.6 348.56 218.91 315.83 218.91 315.83 74.89 426.18 74.89 426.18 100.5"/><rect class="cls-2" x="451.51" y="74.89" width="32.74" height="144.02"/><polygon class="cls-2" points="627.85 218.91 521.45 218.91 521.45 74.89 554.19 74.89 554.19 193.3 627.85 193.3 627.85 218.91"/><polygon class="cls-2" points="767.41 218.91 650.32 218.91 650.32 74.89 764.9 74.89 764.9 100.37 683.85 100.37 683.85 134.99 731.27 134.99 731.27 160.47 683.85 160.47 683.85 193.3 767.54 193.3 767.41 218.91"/><path class="cls-2" d="M800.26,254.28H791l-2.51-19.8h6.86c4.89,0,8.45-1.32,10.43-4s3-6.73,3-12.54V74.89h32.74v148.9c0,10-3.57,17.56-10.7,22.71s-17.29,7.78-30.62,7.78"/><polygon class="cls-2" points="998.96 218.91 881.74 218.91 881.74 74.89 996.32 74.89 996.32 100.37 915.27 100.37 915.27 134.99 962.81 134.99 962.81 160.47 915.27 160.47 915.27 193.3 998.96 193.3 998.96 218.91"/><polygon class="cls-2" points="1150 100.37 1099.31 100.37 1099.31 218.78 1066.57 218.78 1066.57 100.37 1015.88 100.37 1015.88 74.89 1150 74.89 1150 100.37"/></g></svg>