<svg xmlns="http://www.w3.org/2000/svg" data-name="Layer 1" width="640" height="220" style=""><rect id="backgroundrect" width="100%" height="100%" x="0" y="0" fill="none" stroke="none"/><defs><style>.cls-1{fill:#63f;}.cls-2{fill:#072989;}.cls-3{fill:#4688f4;}.cls-4{fill:#ee5a24;}.cls-5{fill:#b53471;}.cls-6{fill:#3e4ec6;}.cls-7{fill:#f7931e;}.cls-8{fill:#1289a7;}.cls-9{fill:#6c0;}.cls-10{fill:#dc4538;}</style></defs><title>FILEJET-logo2</title><g class="currentLayer" style=""><title>Layer 1</title><path d="M252.34,90.52h-31.7v13.79h24.48v10.42H220.64V139H207.25V80.1h45.09Z" id="svg_1" class="" fill="#ffffff" fill-opacity="1"/><path d="M284.76,139H271.37V80.1h13.39Z" id="svg_2" class="" fill="#ffffff" fill-opacity="1"/><path d="M348.17,139H304.66V80.1h13.39v48.43h30.12Z" id="svg_3" class="" fill="#ffffff" fill-opacity="1"/><path d="M412.71,139h-47.9V80.1h46.86V90.52H378.51v13.79h25.73v10.42H378.51v13.8h34.2Z" id="svg_4" class="" fill="#ffffff" fill-opacity="1"/><path d="M431.21,153.41h-3.76l-1.05-8.07h2.83c2,0,3.45-.53,4.28-1.6s1.26-2.77,1.26-5.13V80.1h13.39V141q0,6.14-4.39,9.29T431.21,153.41Z" id="svg_5" class="" fill="#ffffff" fill-opacity="1"/><path d="M517.32,139H469.41V80.1h46.86V90.52H483.11v13.79h25.74v10.42H483.11v13.8h34.21Z" id="svg_6" class="" fill="#ffffff" fill-opacity="1"/><path d="M585,90.52H564.29V139H550.9V90.52H530.19V80.1H585Z" id="svg_7" class="" fill="#ffffff" fill-opacity="1"/><rect class="cls-1" x="213.70999908447266" y="-2.1500015258789062" width="22.239999771118164" height="22.239999771118164" transform="rotate(45 93.88999938964845,-69.58000183105469) " id="svg_8"/><rect class="cls-2" x="245.15999603271484" y="7.060005187988281" width="22.239999771118164" height="22.239999771118164" transform="rotate(45 109.62000274658202,-76.08999633789062) " id="svg_9"/><rect class="cls-3" x="276.61000061035156" y="16.269996643066406" width="22.239999771118164" height="22.239999771118164" transform="rotate(45 125.33999633789064,-82.61000061035159) " id="svg_10"/><rect class="cls-4" x="204.5" y="29.300003051757812" width="22.239999771118164" height="22.239999771118164" transform="rotate(45 100.41000366210936,-53.849998474121094) " id="svg_11"/><rect class="cls-5" x="235.9499969482422" y="38.5099983215332" width="22.239999771118164" height="22.239999771118164" transform="rotate(45 116.12999725341795,-60.36999893188476) " id="svg_12"/><rect class="cls-6" x="267.3999938964844" y="47.730003356933594" width="22.239999771118164" height="22.239999771118164" transform="rotate(45 131.86000061035156,-66.87999725341795) " id="svg_13"/><rect class="cls-5" x="174.30999755859375" y="91.08999824523926" width="18.010000228881836" height="18.010000228881836" transform="rotate(45 106.7699966430664,-19.190000534057614) " id="svg_14"/><rect class="cls-4" x="153.04999542236328" y="74.10000228881836" width="12.920000076293945" height="12.920000076293945" transform="rotate(45 90.76999664306642,-19.340000152587884) " id="svg_15"/><rect class="cls-2" x="140.03999710083008" y="100.69999837875366" width="9.760000228881836" height="9.760000228881836" transform="rotate(45 93.01999664306639,-4.469999790191663) " id="svg_16"/><rect class="cls-7" x="226.73999786376953" y="69.97000122070312" width="22.239999771118164" height="22.239999771118164" transform="rotate(45 122.65000152587889,-44.639999389648445) " id="svg_17"/><rect class="cls-8" x="258.1899948120117" y="79.17000198364258" width="22.239999771118164" height="22.239999771118164" transform="rotate(45 138.36999511718753,-51.15999984741213) " id="svg_18"/><rect class="cls-9" x="248.97999572753906" y="110.62999725341797" width="22.239999771118164" height="22.239999771118164" transform="rotate(45 144.88999938964847,-35.43000030517579) " id="svg_19"/><rect class="cls-10" x="182.25" y="-11.369998931884766" width="22.239999771118164" height="22.239999771118164" transform="rotate(45 78.16000366210936,-63.069999694824205) " id="svg_20"/></g></svg>