<?xml version="1.0" encoding="utf-8"?>
<!-- Generator: Adobe Illustrator 23.0.4, SVG Export Plug-In . SVG Version: 6.00 Build 0)  -->
<svg version="1.1" id="Layer_1" xmlns="http://www.w3.org/2000/svg" xmlns:xlink="http://www.w3.org/1999/xlink" x="0px" y="0px"
	 viewBox="0 0 1102.1 210.3" style="enable-background:new 0 0 1102.1 210.3;" xml:space="preserve">
<style type="text/css">
	.st0{fill:#4885ED;}
	.st1{fill:#23282D;}
</style>
<title>FILEJET-2019-logo-whitebg</title>
<g>
	<path class="st0" d="M199.8,0.9H4.9C2.8,0.9,1,2.6,1,4.7v194.9c0,2.1,1.7,3.9,3.8,3.9h194.9c2.1,0,3.9-1.7,3.9-3.8c0,0,0,0,0,0V4.7
		C203.6,2.6,201.9,0.9,199.8,0.9L199.8,0.9z M38.5,166v-30.6h30.6V166H38.5z M117.6,117.5H87V86.9h30.6V117.5z M117.6,69H69.2v48.5
		H38.6V38.4h79.1V69z M166.1,69h-30.6V38.4h30.6V69z"/>
	<polygon class="st1" points="377.2,55.7 299.6,55.7 299.6,90.3 337.4,90.3 337.4,115.8 299.6,115.8 299.6,174.1 266.9,174.1 
		266.9,30.1 377.2,30.1 	"/>
	<rect x="402.6" y="30.1" class="st1" width="32.7" height="144"/>
	<polygon class="st1" points="578.9,174.1 472.5,174.1 472.5,30.1 505.2,30.1 505.2,148.5 578.9,148.5 	"/>
	<polygon class="st1" points="718.5,174.1 601.4,174.1 601.4,30.1 715.9,30.1 715.9,55.5 634.9,55.5 634.9,90.2 682.3,90.2 
		682.3,115.6 634.9,115.6 634.9,148.5 718.6,148.5 	"/>
	<path class="st1" d="M751.3,209.5H742l-2.5-19.8h6.9c4.9,0,8.5-1.3,10.4-4s3-6.7,3-12.5V30.1h32.7V179c0,10-3.6,17.6-10.7,22.7
		S764.6,209.5,751.3,209.5"/>
	<polygon class="st1" points="950,174.1 832.8,174.1 832.8,30.1 947.4,30.1 947.4,55.5 866.3,55.5 866.3,90.2 913.9,90.2 
		913.9,115.6 866.3,115.6 866.3,148.5 950,148.5 	"/>
	<polygon class="st1" points="1101,55.5 1050.4,55.5 1050.4,174 1017.6,174 1017.6,55.5 966.9,55.5 966.9,30.1 1101,30.1 	"/>
</g>
</svg>
