<svg xmlns="http://www.w3.org/2000/svg" viewBox="0 0 480 480"><defs><style>.cls-1{fill:#63f;}</style></defs><title>Filejet-admin-icon</title><g id="Capa_1" data-name="Capa 1"><path class="cls-1" d="M451,101.74H414.65V65.35a7.28,7.28,0,0,0-7.28-7.28H29a7.28,7.28,0,0,0-7.28,7.28V371A7.27,7.27,0,0,0,29,378.26H65.35v36.39a7.28,7.28,0,0,0,7.28,7.28H451a7.28,7.28,0,0,0,7.28-7.28V109A7.27,7.27,0,0,0,451,101.74Zm-7.27,254.65-67.33-75.74a7.49,7.49,0,0,0-10.88,0L312.77,340,172.67,182.41a7.49,7.49,0,0,0-10.88,0L79.9,274.54V116.29H443.76ZM36.24,363.71V72.63H400.1v29.11H72.63A7.27,7.27,0,0,0,65.35,109v254.7ZM79.9,371V296.43l87.33-98.24L303,351l-50.13,56.4H79.9Zm363.86,36.38H272.38l45.83-51.56h0L371,296.43l72.77,81.87Z"/><path class="cls-1" d="M320.05,167.23a36.39,36.39,0,1,0,36.38,36.39A36.43,36.43,0,0,0,320.05,167.23Zm0,58.21a21.83,21.83,0,1,1,21.83-21.82A21.85,21.85,0,0,1,320.05,225.44Z"/></g></svg>