<svg xmlns="http://www.w3.org/2000/svg" viewBox="0 0 480 480"><defs><style>.cls-1{fill:#6c0;}</style></defs><title>Filejet-admin-icon</title><g id="Capa_1" data-name="Capa 1"><path class="cls-1" d="M441.54,240h-7.46V83.25a37.38,37.38,0,0,0-37.33-37.33H83.25A37.38,37.38,0,0,0,45.92,83.25v112H38.46a22.39,22.39,0,0,0-22.39,22.4V411.68a22.39,22.39,0,0,0,22.39,22.4H322.11a7.47,7.47,0,0,0,7.46-7.47,37.36,37.36,0,0,0-37.32-37.32H269.86V344.5h89.57v67.18a22.4,22.4,0,0,0,22.39,22.4h59.72a22.39,22.39,0,0,0,22.39-22.4V262.39A22.39,22.39,0,0,0,441.54,240ZM180.28,411.68a7.47,7.47,0,0,1-7.46,7.47H38.46A7.47,7.47,0,0,1,31,411.68v-7.46H180.28Zm0-22.39H31V217.61a7.46,7.46,0,0,1,7.46-7.47H172.82a7.46,7.46,0,0,1,7.46,7.47Zm112,14.93a22.44,22.44,0,0,1,21.12,14.93H193.84a22.14,22.14,0,0,0,1.37-7.47v-7.46Zm-97-14.93V344.5h14.93v44.79Zm29.86,0V344.5h29.86v44.79Zm134.36-59.72H195.21V284.79H359.43Zm0-67.18v7.47H195.21V217.61a22,22,0,0,0-2.55-10.16c.11-.11.26-.14.37-.25l73.89-73.9a7.46,7.46,0,0,0-10.55-10.55l-73.9,73.9a6.65,6.65,0,0,0-.41.62,22,22,0,0,0-9.24-2.06h-112v-112a22.4,22.4,0,0,1,22.4-22.4h313.5a22.4,22.4,0,0,1,22.4,22.4V240H381.82A22.4,22.4,0,0,0,359.43,262.39ZM449,411.68a7.47,7.47,0,0,1-7.46,7.47H381.82a7.47,7.47,0,0,1-7.46-7.47v-7.46H449Zm0-22.39H374.36V262.39a7.46,7.46,0,0,1,7.46-7.46h59.72a7.46,7.46,0,0,1,7.46,7.46Z"/><path class="cls-1" d="M105.26,286.07a7.48,7.48,0,0,0-10.56,0L63,317.73a7.46,7.46,0,0,0,10.37,10.74l.18-.18,31.67-31.66C106.59,294.32,103.91,289.93,105.26,286.07Z"/><path class="cls-1" d="M149.86,286.07a7.47,7.47,0,0,0-10.37,0l-31.66,31.66a7.46,7.46,0,1,0,10.37,10.74l.18-.18,31.67-31.66A7.47,7.47,0,0,0,149.86,286.07Z"/><path class="cls-1" d="M312.27,122.76a7.45,7.45,0,0,0-10.37,0L228,196.65a7.47,7.47,0,1,0,10.38,10.74l.18-.18,73.9-73.9A7.46,7.46,0,0,0,312.27,122.76Z"/><path class="cls-1" d="M427.33,306.28a7.45,7.45,0,0,0-10.37,0l-21.11,21.11a7.46,7.46,0,1,0,10.37,10.73l.19-.18,21.1-21.11A7.45,7.45,0,0,0,427.33,306.28Z"/><path class="cls-1" d="M240.15,299.72h-.08a7.5,7.5,0,1,0,.08,0Z"/><path class="cls-1" d="M254.93,75.78H225.07a7.47,7.47,0,0,0,0,14.93h29.86a7.47,7.47,0,0,0,0-14.93Z"/></g></svg>