<svg id="Layer_1" data-name="Layer 1" xmlns="http://www.w3.org/2000/svg" viewBox="0 0 850.4 850.4"><defs><style>.cls-1{fill:#e7eef7;opacity:0.1;}.cls-2{fill:#2c3941;}.cls-3{fill:#f5ce3e;}.cls-4{fill:#63f;}.cls-5{fill:#fff;}</style></defs><title>WP-plugin-rocket</title><g id="Capa_1" data-name="Capa 1"><path class="cls-1" d="M770.77,166.42h-547a56.25,56.25,0,0,0-1.5,112.5h40.5a56.25,56.25,0,1,1,1.5,112.5H88.37a56.25,56.25,0,1,0-1.5,112.5h176a56.25,56.25,0,1,1,1.5,112.5h-40.5a56.2,56.2,0,1,0,0,112.4h419.4a56.2,56.2,0,0,0,0-112.4h-111a56.25,56.25,0,0,1,0-112.5h37.6a56.25,56.25,0,0,0,1.5-112.5h-39.1a56.25,56.25,0,0,1,0-112.5h238.6a56.25,56.25,0,0,0-.1-112.5Z"/><path class="cls-2" d="M370.17,503.62l-1.1-16h81.7v-16H368l-6.6-92.7a169.39,169.39,0,0,1,20.4-93.3,87.32,87.32,0,0,0,106.2,0,170.27,170.27,0,0,1,20.4,93.3l-8.9,124.7Z"/><circle class="cls-3" cx="434.77" cy="391.62" r="32"/><path class="cls-4" d="M396.87,262.42,398,261c2-2.5,4.1-5,6.2-7.4.6-.7,1.3-1.4,1.9-2.1,2-2.2,4.1-4.3,6.2-6.4l2.1-2.1c2.8-2.6,5.7-5.2,8.6-7.6l11.7-9.6,11.7,9.6c3,2.4,5.9,5,8.6,7.6l2.1,2.1c2.1,2.1,4.2,4.2,6.2,6.4.7.7,1.3,1.4,1.9,2.1,2.1,2.4,4.2,4.9,6.2,7.4l1.1,1.4c2.4,3.1,4.7,6.2,6.9,9.5a71.59,71.59,0,0,1-89.6,0C392.17,268.62,394.47,265.52,396.87,262.42Z"/><rect class="cls-2" x="386.77" y="519.62" width="96" height="16"/><path class="cls-5" d="M434.77,343.62a48,48,0,1,0,48,48A48,48,0,0,0,434.77,343.62Zm0,80a32,32,0,1,1,32-32A32,32,0,0,1,434.77,423.62Z"/><path class="cls-5" d="M674.77,511.62v-16a64,64,0,0,0-62.5,77.8,47.77,47.77,0,0,0-22.7,26.3,46.79,46.79,0,0,0-28.2,7.4,56,56,0,0,0-78.6,1.4v-56.8h8a8,8,0,0,0,8-8v-24h8a8,8,0,0,0,8-7.4l1.7-24.6h62.3a8.06,8.06,0,0,0,5.7-13.7L522,411.52l2.2-31.4a185.69,185.69,0,0,0-27.3-110.7c0-.1,0-.1-.1-.1-.1-.2-.3-.4-.4-.6a183.36,183.36,0,0,0-17.5-23.7c-.5-.6-1-1.1-1.5-1.7-2.6-2.9-5.2-5.7-8-8.4-.8-.8-1.6-1.7-2.5-2.5-3.3-3.2-6.8-6.3-10.3-9.2l-16.7-13.8a8,8,0,0,0-10.1,0l-16.7,13.7c-3.6,2.9-7,6-10.4,9.2a29.49,29.49,0,0,0-2.5,2.5c-2.8,2.7-5.4,5.6-8,8.4-.5.6-1,1.1-1.5,1.7a185.82,185.82,0,0,0-17.5,23.7c-.1.2-.3.4-.4.6v.1A185.86,185.86,0,0,0,345.47,380l2.2,31.4-62.5,62.5a8,8,0,0,0,0,11.3,7.87,7.87,0,0,0,5.6,2.3h62.3l1.7,24.6a7.91,7.91,0,0,0,8,7.4h8v24a8,8,0,0,0,8,8h8v56.9a56,56,0,0,0-78.6-1.4,47,47,0,0,0-28.2-7.4,47.77,47.77,0,0,0-22.7-26.3,63.19,63.19,0,0,0,1.5-13.7,64.06,64.06,0,0,0-64-64v16a48,48,0,0,1,48,48,41.16,41.16,0,0,1-.9,8.6,42.53,42.53,0,0,0-7.1-.6,47.6,47.6,0,0,0-38.4,19.2l12.8,9.6a31.18,31.18,0,0,1,35.9-10.9,31.64,31.64,0,0,1,21.1,24.5,8.12,8.12,0,0,0,9.3,6.5h0l.3-.1a31.83,31.83,0,0,1,28.1,55l10.6,12a47.21,47.21,0,0,0,5.7-65.5,40,40,0,0,1,66.7,29.7,8,8,0,0,0,16,0v-96h16v24h16v-24h32v96a8,8,0,0,0,16,0,40,40,0,0,1,80,0,40.44,40.44,0,0,1-2.3,13.3l15.1,5.4a55.4,55.4,0,0,0-4.3-46.5,30.25,30.25,0,0,1,22.4-3.4,7.93,7.93,0,0,0,9.5-6.1h0a.37.37,0,0,1,.1-.3,31.84,31.84,0,0,1,37-25.9,32.89,32.89,0,0,1,13.7,5.9l9.6-12.8a45.78,45.78,0,0,0-35.9-8.9,42.84,42.84,0,0,1-.9-8.7,47.86,47.86,0,0,1,47.9-48Zm-154.3-79,39,39h-41.8Zm-210.4,39,39-39,2.8,39Zm86.8-209.2L398,261c2-2.5,4.1-5,6.2-7.4.6-.7,1.3-1.4,1.9-2.1,2-2.2,4.1-4.3,6.2-6.4l2.1-2.1c2.8-2.6,5.7-5.2,8.6-7.6l11.7-9.6,11.7,9.6c3,2.4,5.9,5,8.6,7.6l2.1,2.1c2.1,2.1,4.2,4.2,6.2,6.4.7.7,1.3,1.4,1.9,2.1,2.1,2.4,4.2,4.9,6.2,7.4l1.1,1.4c2.4,3.1,4.7,6.2,6.9,9.5a71.59,71.59,0,0,1-89.6,0C392.17,268.62,394.47,265.52,396.87,262.42Zm-26.7,241.2-1.1-16h81.7v-16H368l-6.6-92.7a169.39,169.39,0,0,1,20.4-93.3,87.32,87.32,0,0,0,106.2,0,170.27,170.27,0,0,1,20.4,93.3l-8.9,124.7Zm16.6,32v-16h96v16Z"/><path class="cls-5" d="M434.77,383.62h0a8,8,0,0,1,8,8h0a8,8,0,0,1-8,8h0a8,8,0,0,1-8-8h0A8,8,0,0,1,434.77,383.62Z"/><path class="cls-5" d="M474.77,471.62h0a8,8,0,0,1,8,8h0a8,8,0,0,1-8,8h0a8,8,0,0,1-8-8h0A8,8,0,0,1,474.77,471.62Z"/><path class="cls-5" d="M626.77,391.62h0a8,8,0,0,1,8,8h0a8,8,0,0,1-8,8h0a8,8,0,0,1-8-8h0A8,8,0,0,1,626.77,391.62Z"/><path class="cls-5" d="M218.77,239.62h0a8,8,0,0,1,8,8h0a8,8,0,0,1-8,8h0a8,8,0,0,1-8-8h0A8,8,0,0,1,218.77,239.62Z"/><path class="cls-5" d="M234.77,423.62h0a8,8,0,0,1,8,8h0a8,8,0,0,1-8,8h0a8,8,0,0,1-8-8h0A8,8,0,0,1,234.77,423.62Z"/><path class="cls-5" d="M622.27,211.05h0a8,8,0,0,1,8,8h0a8,8,0,0,1-8,8h0a8,8,0,0,1-8-8h0A8,8,0,0,1,622.27,211.05Z"/><rect class="cls-5" x="418.77" y="591.62" width="16" height="16"/><rect class="cls-5" x="434.77" y="623.62" width="16" height="32"/><path class="cls-5" d="M426.77,671.62h0a8,8,0,0,1,8,8h0a8,8,0,0,1-8,8h0a8,8,0,0,1-8-8h0A8,8,0,0,1,426.77,671.62Z"/><polygon class="cls-5" points="282.77 327.62 282.77 311.62 266.77 311.62 266.77 327.62 250.77 327.62 250.77 343.62 266.77 343.62 266.77 359.62 282.77 359.62 282.77 343.62 298.77 343.62 298.77 327.62 282.77 327.62"/><polygon class="cls-5" points="602.77 303.62 602.77 287.62 586.77 287.62 586.77 303.62 570.77 303.62 570.77 319.62 586.77 319.62 586.77 335.62 602.77 335.62 602.77 319.62 618.77 319.62 618.77 303.62 602.77 303.62"/></g></svg>