<svg xmlns="http://www.w3.org/2000/svg" viewBox="0 0 480 480"><defs><style>.cls-1{fill:#b53470;}</style></defs><title>Filejet-admin-icon</title><g id="Capa_1" data-name="Capa 1"><path class="cls-1" d="M212.69,361.39c-4.14,0-8.44-3.6-8.44-8s4.3-8,8.44-8h27.65a8,8,0,0,1,0,16Z"/><path class="cls-1" d="M299.29,361.39a8,8,0,0,1,0-16h46.48c50.9,0,92.31-37.88,92.31-84.45s-41.41-84.45-92.31-84.45a8,8,0,1,1,0-16c59.75,0,108.35,45.08,108.35,100.49s-48.6,100.49-108.35,100.49Z"/><path class="cls-1" d="M360.41,173.79a8,8,0,0,1-8-8,86,86,0,0,0-170.55-15.69,8,8,0,0,1-7.88,6.57h-.16l-1.13-.11-.14,0a8,8,0,0,1-6.47-9.35,102,102,0,0,1,202.37,18.6A8,8,0,0,1,360.41,173.79Z"/><path class="cls-1" d="M127.9,332.85a102,102,0,1,1,102-102,8,8,0,0,1-16,0,86,86,0,1,0-86,86,8,8,0,0,1,0,16Z"/><path class="cls-1" d="M216.18,287.8,192,263.58a8.09,8.09,0,0,0-11.35,0L156.4,287.79a8,8,0,1,0,11.34,11.35l10.52-10.53V408.24a8,8,0,0,0,16,0V288.6l10.54,10.54a8,8,0,1,0,11.34-11.34Z"/><path class="cls-1" d="M297.94,378.34a8,8,0,0,0-11.35,0l-10.53,10.54V269.24a8,8,0,0,0-16,0V388.88l-10.54-10.54a8,8,0,1,0-11.34,11.34l24.23,24.23a8,8,0,0,0,11.34,0l24.23-24.23a8,8,0,0,0,0-11.34Z"/></g></svg>